<?xml version="1.0" encoding="UTF-8" standalone="no"?>
<svg width="48px" height="48px" viewBox="0 0 48 48" version="1.1" xmlns="http://www.w3.org/2000/svg" xmlns:xlink="http://www.w3.org/1999/xlink" xml:space="preserve" xmlns:serif="http://www.serif.com/">
<g fill="#202020">
<path d="M41.967,14.372c0,-1.099 -0.892,-1.991 -1.991,-1.991l-3.982,-0c-1.099,-0 -1.991,0.892 -1.991,1.991l-0,3.982c-0,1.099 0.892,1.991 1.991,1.991l3.982,0c1.099,0 1.991,-0.892 1.991,-1.991l0,-3.982Z"/>
<path d="M35.977,22.266c0.165,0.034 0.337,0.053 0.512,0.053c0,-0 2.992,-0 2.992,-0c0.175,-0 0.347,-0.019 0.512,-0.053c-0.008,11.078 -0.018,21.744 -0.018,21.744c0,1.107 -0.898,2.005 -2.005,2.005c-1.107,-0 -2.005,-0.898 -2.005,-2.005c0,-0.054 0.006,-10.687 0.012,-21.744Zm0.004,-11.913l0.004,-6.363l0.01,0c0,-1.107 0.898,-2.005 2.005,-2.005c1.107,0 2.005,0.898 2.005,2.005c-0,0.035 -0.003,1.494 -0.006,6.365c-0.167,-0.036 -0.341,-0.054 -0.518,-0.054c-0,-0 -2.992,-0 -2.992,-0c-0.174,-0 -0.344,0.018 -0.508,0.052Z"/>
<path d="M28.003,31.319c-0,-1.107 -0.899,-2.005 -2.005,-2.005l-4.026,0c-1.106,0 -2.005,0.898 -2.005,2.005l0,4.009c0,1.107 0.899,2.005 2.005,2.005l4.026,-0c1.106,-0 2.005,-0.898 2.005,-2.005l-0,-4.009Z"/>
<path d="M21.968,39.22c0.169,0.036 0.343,0.054 0.521,0.054c0,0 2.992,0 2.992,0c0.171,0 0.338,-0.017 0.499,-0.05l-0.005,4.786c0,1.107 -0.898,2.005 -2.005,2.005c-1.107,-0 -2.005,-0.898 -2.005,-2.005l0.003,-4.79Zm0.004,-11.91c0.006,-11.418 0.013,-23.32 0.013,-23.32l0.01,0c0,-1.107 0.898,-2.005 2.005,-2.005c1.107,0 2.005,0.898 2.005,2.005c-0,0.07 -0.01,11.932 -0.019,23.318c-0.163,-0.034 -0.332,-0.051 -0.505,-0.051l-2.992,-0c-0.177,-0 -0.35,0.018 -0.517,0.053Z"/>
<path d="M13.967,18.944c0,-1.099 -0.892,-1.991 -1.991,-1.991l-3.982,-0c-1.099,-0 -1.991,0.892 -1.991,1.991l-0,4.007c-0,1.099 0.892,1.991 1.991,1.991l3.982,0c1.099,0 1.991,-0.892 1.991,-1.991l0,-4.007Z"/>
<path d="M7.975,26.947c0.166,0.035 0.338,0.053 0.514,0.053c0,0 2.992,0 2.992,0c0.174,0 0.344,-0.018 0.508,-0.052l-0.014,17.062c0,1.107 -0.898,2.005 -2.005,2.005c-1.107,-0 -2.005,-0.898 -2.005,-2.005l0.01,-17.063Zm0.004,-11.912l0.006,-11.045l0.01,0c0,-1.107 0.898,-2.005 2.005,-2.005c1.107,0 2.005,0.898 2.005,2.005c-0,0.045 -0.004,3.862 -0.01,11.046c-0.166,-0.035 -0.338,-0.054 -0.514,-0.054c-0,0 -2.992,0 -2.992,0c-0.175,0 -0.345,0.018 -0.51,0.053Z"/>
</g></svg>