<?xml version="1.0" encoding="UTF-8" standalone="no"?>

<svg width="48px" height="48px" viewBox="0 0 48 48" version="1.1" xmlns="http://www.w3.org/2000/svg" xmlns:xlink="http://www.w3.org/1999/xlink" xml:space="preserve" xmlns:serif="http://www.serif.com/">
<g fill="#202020">
<path d="M24,5c8.829,0 16,7.171 16,16c0,8.829 -7.171,16 -16,16c-8.829,0 -16,-7.171 -16,-16c-0,-8.829 7.171,-16 16,-16Zm1.504,7.058l-3.2,0c-0.329,0 -0.616,0.288 -0.616,0.617l-0,9.229c-0,0.783 0.491,1.438 1.187,1.725l6.979,2.504c0.325,0.125 0.696,-0.041 0.779,-0.371l1.067,-2.995c0.042,-0.163 0.042,-0.325 -0.042,-0.492c-0.083,-0.163 -0.204,-0.246 -0.37,-0.329l-4.675,-1.679c-0.33,-0.125 -0.575,-0.455 -0.575,-0.821l-0,-6.771c0.083,-0.371 -0.167,-0.617 -0.534,-0.617Z"/>
<circle r="2.5" cx="9" cy="43"/>
<circle r="2.5" cx="16.5" cy="43"/>
<circle r="2.5" cx="24" cy="43"/>
<circle r="2.5" cx="31.5" cy="43"/>
<circle r="2.5" cx="39" cy="43"/>
</g></svg>