<?xml version="1.0" encoding="UTF-8" standalone="no"?>
<svg width="48px" height="48px" viewBox="0 0 12 12" version="1.1" xmlns="http://www.w3.org/2000/svg" xmlns:xlink="http://www.w3.org/1999/xlink" xml:space="preserve" xmlns:serif="http://www.serif.com/">
<g fill="#202020">
<path d="M2.397,8.587l8.883,0.24l-0,1.304l-8.884,0.24l0,1.149l-2.156,-2.042l2.157,-2.04l-0,1.149Z"/>
<path d="M5.76,0.24c2.119,0 3.84,1.721 3.84,3.84c0,2.119 -1.721,3.84 -3.84,3.84c-2.119,0 -3.84,-1.721 -3.84,-3.84c0,-2.119 1.721,-3.84 3.84,-3.84Zm0.361,1.694l-0.768,-0c-0.079,-0 -0.148,0.069 -0.148,0.148l-0,2.215c-0,0.188 0.118,0.345 0.285,0.414l1.675,0.601c0.078,0.03 0.167,-0.01 0.187,-0.089l0.256,-0.719c0.01,-0.039 0.01,-0.078 -0.01,-0.118c-0.02,-0.039 -0.049,-0.059 -0.089,-0.079l-1.122,-0.403c-0.079,-0.03 -0.138,-0.109 -0.138,-0.197l-0,-1.625c0.02,-0.089 -0.04,-0.148 -0.128,-0.148Z"/>
</g>
</svg>